<svg width="370" height="74" viewBox="0 0 370 74" fill="none" xmlns="http://www.w3.org/2000/svg">
<path d="M0 66C24.6667 60.4444 49.3333 54.8889 74 47.3333C98.6667 39.7778 123.333 20.6667 148 20.6667C172.667 20.6667 197.333 46.2667 222 46.2667C246.667 46.2667 271.333 21.6 296 14C320.667 6.39999 345.333 3.53332 370 0.666656V74C345.333 74 320.667 74 296 74C271.333 74 246.667 74 222 74C197.333 74 172.667 74 148 74C123.333 74 98.6667 74 74 74C49.3333 74 24.6667 74 0 74V66Z" fill="#B7E9FF" fill-opacity="0.6"/>
<path d="M0 66C24.6667 60.4444 49.3333 54.8889 74 47.3333C98.6667 39.7778 123.333 20.6667 148 20.6667C172.667 20.6667 197.333 46.2667 222 46.2667C246.667 46.2667 271.333 21.6 296 14C320.667 6.39999 345.333 3.53332 370 0.666656" stroke="#00A1E4"/>
</svg>
