<svg width="370" height="138" viewBox="0 0 370 138" fill="none" xmlns="http://www.w3.org/2000/svg">
<path d="M0 123C24.6667 112.583 49.3333 102.167 74 88C98.6667 73.8333 123.333 38 148 38C172.667 38 197.333 86 222 86C246.667 86 271.333 39.75 296 25.5C320.667 11.25 345.333 5.875 370 0.5V138C345.333 138 320.667 138 296 138C271.333 138 246.667 138 222 138C197.333 138 172.667 138 148 138C123.333 138 98.6667 138 74 138C49.3333 138 24.6667 138 0 138V123Z" fill="#B7E9FF" fill-opacity="0.6"/>
<path d="M0 123C24.6667 112.583 49.3333 102.167 74 88C98.6667 73.8333 123.333 38 148 38C172.667 38 197.333 86 222 86C246.667 86 271.333 39.75 296 25.5C320.667 11.25 345.333 5.875 370 0.5" stroke="#00A1E4"/>
</svg>
