<svg width="16" height="18" viewBox="0 0 16 18" fill="none" xmlns="http://www.w3.org/2000/svg">
<path d="M0.281712 0.282286H15.1603C15.1791 0.280945 15.1979 0.285194 15.2144 0.294504C15.2313 0.302981 15.2453 0.316365 15.2545 0.332909C15.2647 0.348598 15.2707 0.366624 15.272 0.385281C15.2737 0.403946 15.27 0.422704 15.2615 0.439397C13.978 3.0288 12.0449 5.24105 9.65086 6.86006C6.87592 8.71447 3.62081 9.72024 0.283459 9.75442C0.26912 9.7579 0.254156 9.7579 0.239817 9.75442C0.226085 9.74963 0.213579 9.74188 0.203164 9.73173C0.193057 9.72093 0.184797 9.70855 0.178722 9.69507C0.176274 9.68121 0.176274 9.66703 0.178722 9.65317V0.400991C0.176103 0.386562 0.176103 0.371779 0.178722 0.357349C0.184626 0.344293 0.192917 0.332453 0.203164 0.322436C0.213513 0.311782 0.226002 0.303451 0.239817 0.297996C0.25258 0.289987 0.26683 0.284644 0.281712 0.282286Z" fill="#FF6250"/>
<path d="M10.2846 17.3622C9.83592 17.1962 9.46874 16.8632 9.25987 16.4328C9.051 16.0024 9.0166 15.5078 9.16389 15.0526L11.6725 7.8953C11.7525 7.67647 11.8759 7.47604 12.0353 7.30603C12.1946 7.13601 12.3866 6.9999 12.5998 6.90586C12.813 6.81181 13.043 6.76176 13.276 6.75869C13.509 6.75563 13.7402 6.79962 13.9558 6.88804C14.4063 7.05437 14.7747 7.38884 14.9837 7.82116C15.1927 8.25348 15.226 8.74998 15.0766 9.20632L12.568 16.3637C12.4871 16.5817 12.363 16.7812 12.2033 16.9503C12.0436 17.1194 11.8514 17.2546 11.6383 17.3478C11.4252 17.441 11.1955 17.4903 10.963 17.4927C10.7304 17.4952 10.4997 17.4508 10.2846 17.3622Z" fill="#3366FF"/>
<path d="M3.49382 17.5595C4.3735 17.5595 5.21715 17.21 5.83917 16.588C6.46119 15.966 6.81064 15.1223 6.81064 14.2427C6.81064 13.363 6.46119 12.5193 5.83917 11.8973C5.21715 11.2753 4.3735 10.9258 3.49382 10.9258C2.61415 10.9258 1.77049 11.2753 1.14847 11.8973C0.526446 12.5193 0.177002 13.363 0.177002 14.2427C0.177002 15.1223 0.526446 15.966 1.14847 16.588C1.77049 17.21 2.61415 17.5595 3.49382 17.5595Z" fill="#FFDF90"/>
</svg>
