<svg width="200" height="80" viewBox="0 0 200 80" fill="none" xmlns="http://www.w3.org/2000/svg">
<path d="M162.595 48.3767H159.44V49.5673L160.54 49.8024V61.5112H162.595V48.3767ZM162.686 56.673L165.735 61.5112H168.184V60.4116L167.213 60.2523L164.635 56.2331L166.728 53.7989L167.812 53.6548V52.3883H164.203V53.6169L165.158 53.7458L162.686 56.673ZM155.58 55.1639C155.58 54.1932 155.307 53.8292 154.587 53.8292C153.973 53.8292 153.237 54.1704 152.714 54.5875V61.5112H150.659V53.8823L149.559 53.6472V52.3808H152.373L152.608 53.4424C153.434 52.6462 154.359 52.1457 155.459 52.1457C156.809 52.1457 157.62 52.904 157.62 54.4889V60.2827L158.72 60.4268V61.5112H155.58V55.1639ZM148.748 60.3888C147.936 60.404 147.777 60.2599 147.777 59.5395V55.0122C147.777 52.9343 146.768 52.1457 144.82 52.1457C143.394 52.1457 142.203 52.5628 141.233 53.177L141.824 54.4586C142.651 54.0415 143.47 53.7761 144.387 53.7761C145.472 53.7761 145.722 54.3524 145.722 55.361V56.0663H145.108C142.15 56.0663 140.937 56.9156 140.937 58.9859C140.937 60.9197 142.006 61.7463 143.591 61.7463C144.729 61.7463 145.358 61.2609 145.881 60.7225C146.063 61.4657 146.64 61.7463 147.428 61.7463C147.989 61.7463 148.528 61.587 148.869 61.405L148.748 60.3888ZM145.722 59.6533C145.381 60.0324 144.873 60.3358 144.167 60.3358C143.394 60.3358 143.015 59.9414 143.015 58.857C143.015 57.5375 143.591 57.1962 145.123 57.1962H145.722V59.6533ZM130.002 49.0289V50.1816L131.245 50.3939V60.2068L130.002 60.404V61.5036H135.537C137.843 61.5036 139.45 60.5102 139.45 58.038C139.45 56.0739 138.366 55.1335 137.054 54.8833C138.245 54.542 138.897 53.6775 138.897 52.3428C138.897 50.4318 137.957 49.0213 135.196 49.0213H130.002V49.0289ZM133.452 54.4055V50.3863H134.878C136.281 50.3863 136.66 51.1447 136.66 52.4414C136.66 53.7382 136.349 54.4055 134.961 54.4055H133.452ZM133.452 60.1765V55.7175H135.128C136.622 55.7175 137.183 56.4379 137.183 57.8787C137.183 59.4485 136.607 60.1689 135.037 60.1689H133.452V60.1765ZM124.147 53.6244V52.3808H127.575V53.6472L126.763 53.7913L124.276 61.496C123.427 64.1654 122.289 64.8479 120.34 65.2498L119.855 63.7331C121.584 63.4829 122.327 62.7776 122.721 61.5112H122.069L119.567 53.7761L118.755 53.6472V52.3808H122.6V53.6244L121.66 53.7685L122.888 57.9697C123.085 58.6902 123.267 59.5395 123.358 60.2448H123.374C123.465 59.5623 123.647 58.7812 123.882 57.9697L125.148 53.7458L124.147 53.6244ZM117.876 56.582C117.876 53.2983 116.617 52.1457 114.357 52.1457C112.029 52.1457 110.573 53.5334 110.573 56.9232C110.573 60.3509 111.961 61.7387 114.562 61.7387C115.949 61.7387 116.89 61.3747 117.792 60.6543L117.201 59.5698C116.48 60.0173 115.881 60.313 114.857 60.313C113.272 60.313 112.764 59.5016 112.749 57.3934H117.891V56.582H117.876ZM112.734 56.1345C112.84 54.0567 113.333 53.3969 114.342 53.3969C115.532 53.3969 115.805 54.1174 115.805 56.1345H112.734ZM109.648 61.3974C109.268 61.6022 108.76 61.7463 108.161 61.7463C106.614 61.7463 106.144 60.7604 106.144 59.312V49.8024L105.029 49.5673V48.3767H108.207V59.5016C108.207 60.0476 108.358 60.2903 108.768 60.2903C108.942 60.2903 109.162 60.2523 109.352 60.1841L109.648 61.3974ZM104.855 61.3974C104.476 61.6022 103.968 61.7463 103.369 61.7463C101.822 61.7463 101.351 60.7604 101.351 59.312V49.8024L100.229 49.5673V48.3767H103.406V59.5016C103.406 60.0476 103.558 60.2903 103.968 60.2903C104.142 60.2903 104.362 60.2523 104.552 60.1841L104.855 61.3974ZM99.6982 60.3888C98.8868 60.404 98.7199 60.2599 98.7199 59.5395V55.0122C98.7199 52.9343 97.7113 52.1457 95.7624 52.1457C94.3367 52.1457 93.1461 52.5628 92.1754 53.177L92.7669 54.4586C93.5935 54.0415 94.405 53.7761 95.3301 53.7761C96.4146 53.7761 96.6648 54.3524 96.6648 55.361V56.0663H96.0506C93.093 56.0663 91.8797 56.9156 91.8797 58.9859C91.8797 60.9197 92.9414 61.7463 94.5339 61.7463C95.6714 61.7463 96.3008 61.2609 96.8241 60.7225C97.0061 61.4657 97.5824 61.7463 98.3787 61.7463C98.9398 61.7463 99.4783 61.587 99.8195 61.405L99.6982 60.3888ZM96.6648 59.6533C96.3236 60.0324 95.8155 60.3358 95.1178 60.3358C94.3443 60.3358 93.9651 59.9414 93.9651 58.857C93.9651 57.5375 94.5415 57.1962 96.0733 57.1962H96.6648V59.6533ZM87.8301 61.5112H85.7523L82.4156 50.3636L81.407 50.1816V49.0289H85.9722V50.1816L84.7664 50.3636L86.5182 56.8777C86.8974 58.3186 86.9656 58.7508 87.0794 59.4409H87.1173C87.2083 58.7736 87.2765 58.3262 87.6785 56.8626L89.4302 50.3711L88.2017 50.1891V49.0365H92.1375V50.1891L91.1289 50.3711L87.8301 61.5112ZM77.2209 55.1639C77.2209 54.1932 76.9479 53.8292 76.2275 53.8292C75.6132 53.8292 74.8777 54.1704 74.3544 54.5875V61.5112H72.2993V53.8823L71.1997 53.6472V52.3808H74.0131L74.2482 53.4424C75.0748 52.6462 76 52.1457 77.0996 52.1457C78.4494 52.1457 79.2609 52.904 79.2609 54.4889V60.2827L80.3605 60.4268V61.5112H77.2209V55.1639ZM66.1643 52.1457C63.8059 52.1457 62.2664 53.4803 62.2664 56.9081C62.2664 60.3509 63.821 61.7387 66.1795 61.7387C68.5607 61.7387 70.0925 60.3661 70.0925 56.9384C70.1001 53.5183 68.5455 52.1457 66.1643 52.1457ZM66.1871 60.4647C64.8903 60.4647 64.4732 59.5092 64.4732 56.9308C64.4732 54.3676 64.8675 53.45 66.1719 53.45C67.4914 53.45 67.9009 54.3904 67.9009 56.9308C67.9009 59.5092 67.499 60.4647 66.1871 60.4647ZM61.0683 60.677C60.3099 61.3292 59.3544 61.7387 57.9818 61.7387C55.6689 61.7387 54.1749 60.2751 54.1749 56.9232C54.1749 53.4273 55.8129 52.1457 58.05 52.1457C59.2406 52.1457 60.1431 52.4566 60.7877 53.0102V55.088H59.3847L59.1117 53.6851C58.8766 53.5031 58.4975 53.4348 58.088 53.4348C56.8974 53.4348 56.3741 54.2311 56.3741 56.8474C56.3741 59.6229 57.0187 60.3282 58.3913 60.3282C59.2027 60.3282 59.8701 60.0021 60.4464 59.6229L61.0683 60.677ZM52.2639 61.5112H50.2088V53.8823L49.1092 53.6472V52.3808H52.2639V61.5112ZM48.4949 61.3974C48.1158 61.6022 47.6077 61.7463 47.0086 61.7463C45.4616 61.7463 44.9914 60.7604 44.9914 59.312V49.8024L43.8766 49.5673V48.3767H47.0541V59.5016C47.0541 60.0476 47.2058 60.2903 47.6153 60.2903C47.7897 60.2903 48.0096 60.2523 48.1992 60.1841L48.4949 61.3974ZM42.7315 61.5112H40.6764V53.8823L39.5768 53.6472V52.3808H42.7315V61.5112ZM35.095 54.0036C37.226 54.724 38.5227 55.6113 38.5227 58.0986C38.5227 60.0628 37.3852 61.7387 34.3898 61.7387C32.911 61.7387 31.7356 61.4505 31 60.9652V58.2958H32.3878L32.8352 60.0779C33.2826 60.313 33.6618 60.3661 34.2609 60.3661C35.8837 60.3661 36.4449 59.4637 36.4449 58.3262C36.4449 57.0294 35.7017 56.5592 34.2988 56.0739C31.9555 55.2625 31.0683 54.269 31.0683 52.1988C31.0683 49.9086 32.6001 48.7938 34.9434 48.7938C36.0809 48.7938 37.1653 49.0289 37.9388 49.446V52.0774H36.5511L36.1188 50.4318C35.7548 50.2498 35.3453 50.1816 34.8751 50.1816C33.6163 50.1816 33.002 50.7958 33.002 51.8727C33.002 53.0708 33.5404 53.4652 35.095 54.0036Z" fill="#005B7F"/>
<path d="M116.8 35.9L122.45 25.78H122.43L116.85 15.54L119.47 14L128.89 25.79L119.41 37.46L116.8 35.9ZM102.08 21.34C100.65 21.34 99.44 22.11 98.65 22.98V16H94.2V17.69L95.73 18.02V34.62H97.93L98.29 33.32C99.08 34.19 100.31 34.96 101.77 34.96C104.51 34.96 106.42 33.58 106.42 27.98C106.42 22.75 104.48 21.34 102.08 21.34ZM101 32.92C100.08 32.92 99.21 32.41 98.65 31.87V24.58C99.34 23.94 100.13 23.53 101.13 23.53C102.82 23.53 103.33 24.81 103.33 28.11C103.33 31.57 102.77 32.92 101 32.92ZM89.4 23.44V21.68H94.31V23.47L93.13 23.67L89.4 34.61H86.64L82.91 23.64L81.81 23.46V21.67H87.26V23.43L85.98 23.64L87.74 29.37C88.07 30.44 88.23 31.34 88.41 32.36H88.44C88.59 31.36 88.85 30.31 89.13 29.34L90.82 23.61L89.4 23.44ZM77.06 26.69C79.31 27.3 80.9 28.15 80.9 31.01C80.9 33.64 79.01 34.95 76.09 34.95C74.35 34.95 72.94 34.54 72 34V30.83H73.99L74.4 32.82C74.94 33.08 75.24 33.15 76.06 33.15C77.62 33.15 78.23 32.54 78.23 31.36C78.23 30.11 77.54 29.65 75.72 29.16C73.55 28.57 72.06 27.63 72.06 25.1C72.06 22.98 73.57 21.34 76.56 21.34C78.22 21.34 79.45 21.62 80.4 22.11V25.26H78.48L78.02 23.37C77.64 23.19 77.2 23.11 76.59 23.11C75.31 23.11 74.59 23.67 74.59 24.7C74.61 25.74 75.22 26.2 77.06 26.69Z" fill="#00A1E4"/>
</svg>
