<svg width="16" height="18" fill="none" xmlns="http://www.w3.org/2000/svg"><path d="M.282.282H15.16a.096.096 0 0 1 .054.013c.017.008.031.021.04.038a.11.11 0 0 1 .008.106A16.71 16.71 0 0 1 9.65 6.86 17.176 17.176 0 0 1 .24 9.754a.1.1 0 0 1-.037-.022.135.135 0 0 1-.024-.037.12.12 0 0 1 0-.042V.401a.122.122 0 0 1 0-.044.115.115 0 0 1 .06-.059.112.112 0 0 1 .043-.016Z" fill="#FF6250"/><path d="M10.285 17.362a1.854 1.854 0 0 1-1.121-2.31l2.508-7.157a1.73 1.73 0 0 1 2.284-1.007 1.856 1.856 0 0 1 1.12 2.318l-2.508 7.158a1.732 1.732 0 0 1-2.283.998Z" fill="#36F"/><path d="M3.494 17.56a3.317 3.317 0 1 0 0-6.634 3.317 3.317 0 0 0 0 6.633Z" fill="#FFDF90"/></svg>